SplineFontDB: 3.2
FontName: SevenPixelsFont
FullName: Seven Pixels Font
FamilyName: SevenPixelsFont
Weight: Medium
Copyright: (c) - 2024 Mounir Tohami (Whales State) https://mounirtohami.itch.io
Version: 001.000
ItalicAngle: 0
UnderlinePosition: -142
UnderlineWidth: 0
Ascent: 1000
Descent: 0
InvalidEm: 0
sfntRevision: 0x00010000
LayerCount: 2
Layer: 0 1 "Back" 1
Layer: 1 1 "Fore" 0
XUID: [1021 465 1097079576 2156]
StyleMap: 0x0040
FSType: 0
OS2Version: 1
OS2_WeightWidthSlopeOnly: 0
OS2_UseTypoMetrics: 0
CreationTime: 1280473793
ModificationTime: 1710301022
PfmFamily: 17
TTFWeight: 500
TTFWidth: 5
LineGap: 286
VLineGap: 0
Panose: 2 0 6 3 0 0 0 0 0 0
OS2TypoAscent: 1000
OS2TypoAOffset: 0
OS2TypoDescent: 0
OS2TypoDOffset: 0
OS2TypoLinegap: 286
OS2WinAscent: 1000
OS2WinAOffset: 0
OS2WinDescent: 286
OS2WinDOffset: 0
HheadAscent: 1000
HheadAOffset: 0
HheadDescent: 0
HheadDOffset: 0
OS2SubXSize: 714
OS2SubYSize: 714
OS2SubXOff: 0
OS2SubYOff: 143
OS2SupXSize: 714
OS2SupYSize: 714
OS2SupXOff: 0
OS2SupYOff: 429
OS2StrikeYSize: 0
OS2StrikeYPos: 286
OS2Vendor: '2ttf'
OS2CodePages: 00000001.00000000
OS2UnicodeRanges: 00000003.00000000.00000000.00000000
MarkAttachClasses: 1
DEI: 91125
ShortTable: cvt  2
  34
  648
EndShort
ShortTable: maxp 16
  1
  0
  99
  58
  10
  0
  0
  2
  0
  1
  1
  0
  64
  46
  0
  0
EndShort
LangName: 1033 "" "" "" "MounirTohami:SevenPixelsFont" "" "" "" "" "" "Mounir Tohami" "" "https://mounirtohami.itch.io/seven-pixels-font" "https://mounirtohami.itch.io/" "SIL Open Font License (OFL)" "https://openfontlicense.org/"
GaspTable: 1 65535 0 0
Encoding: UnicodeBmp
UnicodeInterp: none
NameList: AGL For New Fonts
DisplaySize: -36
AntiAlias: 1
FitToEm: 0
WinInfo: 0 51 17
BeginPrivate: 0
EndPrivate
BeginChars: 65539 99

StartChar: .notdef
Encoding: 65536 -1 0
Width: 714
GlyphClass: 1
Flags: W
LayerCount: 2
Fore
SplineSet
76 0 m 1,0,-1
 76 1525 l 1,1,-1
 685 1525 l 1,2,-1
 685 0 l 1,3,-1
 76 0 l 1,0,-1
152 76 m 1,4,-1
 608 76 l 1,5,-1
 608 1449 l 1,6,-1
 152 1449 l 1,7,-1
 152 76 l 1,4,-1
EndSplineSet
EndChar

StartChar: exclam
Encoding: 33 33 4
Width: 285
GlyphClass: 2
Flags: W
LayerCount: 2
Fore
SplineSet
0 0 m 5,0,-1
 0 144 l 5,1,-1
 144 144 l 5,2,-1
 144 0 l 5,3,-1
 0 0 l 5,0,-1
0 286 m 5,4,5
 0 286 0 286 0 1002 c 5,6,-1
 144 1002 l 5,7,-1
 144 286 l 5,8,-1
 0 286 l 5,4,5
EndSplineSet
EndChar

StartChar: quotedbl
Encoding: 34 34 5
Width: 571
GlyphClass: 2
Flags: W
LayerCount: 2
Fore
SplineSet
286 716 m 5,0,1
 286 716 286 716 286 1002 c 5,2,-1
 430 1002 l 5,3,-1
 430 716 l 5,4,-1
 286 716 l 5,0,1
0 716 m 5,5,6
 0 716 0 716 0 1002 c 5,7,-1
 144 1002 l 5,8,9
 144 1002 144 1002 144 716 c 5,10,-1
 0 716 l 5,5,6
EndSplineSet
EndChar

StartChar: numbersign
Encoding: 35 35 6
Width: 857
GlyphClass: 2
Flags: W
LayerCount: 2
Fore
SplineSet
430 0 m 1,0,1
 430 0 430 0 430 286 c 1,2,-1
 286 286 l 1,3,4
 286 286 286 286 286 0 c 1,5,-1
 144 0 l 1,6,7
 144 0 144 0 144 286 c 1,8,-1
 0 286 l 1,9,-1
 0 430 l 1,10,-1
 144 430 l 1,11,-1
 144 572 l 1,12,-1
 0 572 l 1,13,-1
 0 716 l 1,14,-1
 144 716 l 1,15,16
 144 716 144 716 144 1002 c 1,17,-1
 286 1002 l 1,18,19
 286 1002 286 1002 286 716 c 1,20,-1
 430 716 l 1,21,22
 430 716 430 716 430 1002 c 1,23,-1
 572 1002 l 1,24,25
 572 1002 572 1002 572 716 c 1,26,-1
 716 716 l 1,27,-1
 716 572 l 1,28,-1
 572 572 l 1,29,-1
 572 430 l 1,30,-1
 716 430 l 1,31,-1
 716 286 l 1,32,-1
 572 286 l 1,33,-1
 572 0 l 1,34,-1
 430 0 l 1,0,1
430 430 m 1,35,-1
 430 572 l 1,36,-1
 286 572 l 1,37,-1
 286 430 l 1,38,-1
 430 430 l 1,35,-1
EndSplineSet
EndChar

StartChar: dollar
Encoding: 36 36 7
Width: 714
GlyphClass: 2
Flags: W
LayerCount: 2
Fore
SplineSet
286 0 m 1,0,-1
 286 144 l 1,1,2
 286 144 286 144 0 144 c 1,3,-1
 0 286 l 1,4,-1
 430 286 l 1,5,-1
 430 144 l 1,6,-1
 430 0 l 1,7,-1
 286 0 l 1,0,-1
430 286 m 1,8,-1
 430 430 l 1,9,-1
 572 430 l 1,10,-1
 572 286 l 1,11,-1
 430 286 l 1,8,-1
430 430 m 1,12,13
 430 430 430 430 144 430 c 1,14,-1
 144 572 l 1,15,16
 144 572 144 572 430 572 c 1,17,-1
 430 430 l 1,12,13
144 572 m 1,18,-1
 0 572 l 1,19,-1
 0 716 l 1,20,-1
 144 716 l 1,21,-1
 144 572 l 1,18,-1
144 716 m 1,22,-1
 144 858 l 1,23,-1
 286 858 l 1,24,-1
 286 1002 l 1,25,-1
 430 1002 l 1,26,-1
 430 858 l 1,27,-1
 572 858 l 1,28,-1
 572 716 l 1,29,30
 573 716 573 716 144 716 c 1,22,-1
EndSplineSet
EndChar

StartChar: percent
Encoding: 37 37 8
Width: 857
GlyphClass: 2
Flags: W
LayerCount: 2
Fore
SplineSet
0 0 m 1,0,-1
 0 144 l 1,1,-1
 144 144 l 1,2,-1
 144 0 l 1,3,-1
 0 0 l 1,0,-1
572 144 m 1,4,-1
 572 286 l 1,5,-1
 716 286 l 1,6,-1
 716 144 l 1,7,-1
 572 144 l 1,4,-1
0 716 m 1,8,-1
 0 858 l 1,9,-1
 144 858 l 1,10,-1
 144 716 l 1,11,-1
 0 716 l 1,8,-1
144 144 m 1,12,13
 144 144 144 144 144 430 c 1,14,-1
 286 430 l 1,15,-1
 286 144 l 1,16,-1
 144 144 l 1,12,13
286 430 m 1,17,-1
 286 572 l 1,18,-1
 430 572 l 1,19,-1
 430 430 l 1,20,-1
 286 430 l 1,17,-1
430 572 m 1,21,22
 430 572 430 572 430 858 c 1,23,-1
 572 858 l 1,24,25
 572 858 572 858 572 572 c 1,26,-1
 430 572 l 1,21,22
572 858 m 1,27,-1
 572 1002 l 1,28,-1
 716 1002 l 1,29,-1
 716 858 l 1,30,-1
 572 858 l 1,27,-1
EndSplineSet
EndChar

StartChar: ampersand
Encoding: 38 38 9
Width: 857
GlyphClass: 2
Flags: W
LayerCount: 2
Fore
SplineSet
572 0 m 1,0,-1
 572 144 l 1,1,-1
 716 144 l 1,2,-1
 716 0 l 1,3,-1
 572 0 l 1,0,-1
430 144 m 1,4,-1
 430 0 l 1,5,6
 430 0 430 0 144 0 c 1,7,-1
 144 144 l 1,8,-1
 430 144 l 1,4,-1
430 144 m 1,9,10
 430 144 430 144 430 430 c 1,11,-1
 572 430 l 1,12,13
 572 430 572 430 572 144 c 1,14,-1
 430 144 l 1,9,10
144 144 m 1,15,-1
 0 144 l 1,16,17
 0 144 0 144 0 572 c 1,18,-1
 144 572 l 1,19,20
 144 573 144 573 144 144 c 1,15,-1
572 430 m 1,21,-1
 572 572 l 1,22,-1
 716 572 l 1,23,-1
 716 430 l 1,24,-1
 572 430 l 1,21,-1
430 430 m 1,25,-1
 286 430 l 1,26,-1
 286 572 l 1,27,-1
 430 572 l 1,28,-1
 430 430 l 1,25,-1
144 572 m 1,29,-1
 144 716 l 1,30,-1
 286 716 l 1,31,-1
 286 572 l 1,32,-1
 144 572 l 1,29,-1
286 716 m 1,33,-1
 286 858 l 1,34,-1
 430 858 l 1,35,-1
 430 716 l 1,36,-1
 286 716 l 1,33,-1
144 716 m 1,37,-1
 0 716 l 1,38,-1
 0 858 l 1,39,-1
 144 858 l 1,40,-1
 144 716 l 1,37,-1
144 858 m 1,41,-1
 144 1002 l 1,42,-1
 286 1002 l 1,43,-1
 286 858 l 1,44,-1
 144 858 l 1,41,-1
EndSplineSet
EndChar

StartChar: quotesingle
Encoding: 39 39 10
Width: 285
GlyphClass: 2
Flags: W
LayerCount: 2
Fore
SplineSet
0 716 m 5,0,1
 0 716 0 716 0 1002 c 5,2,-1
 144 1002 l 5,3,-1
 144 716 l 5,4,-1
 0 716 l 5,0,1
EndSplineSet
EndChar

StartChar: parenleft
Encoding: 40 40 11
Width: 428
GlyphClass: 2
Flags: W
LayerCount: 2
Fore
SplineSet
144 0 m 5,0,-1
 144 144 l 5,1,-1
 286 144 l 5,2,-1
 286 0 l 5,3,-1
 144 0 l 5,0,-1
144 144 m 5,4,-1
 0 144 l 5,5,6
 0 144 0 144 0 858 c 5,7,-1
 144 858 l 5,8,-1
 144 144 l 5,4,-1
144 858 m 5,9,-1
 144 1002 l 5,10,-1
 286 1002 l 5,11,-1
 286 858 l 5,12,-1
 144 858 l 5,9,-1
EndSplineSet
EndChar

StartChar: parenright
Encoding: 41 41 12
Width: 428
GlyphClass: 2
Flags: W
LayerCount: 2
Fore
SplineSet
0 0 m 1,0,-1
 0 144 l 1,1,-1
 144 144 l 1,2,-1
 144 0 l 1,3,-1
 0 0 l 1,0,-1
144 144 m 1,4,5
 144 144 144 144 144 858 c 1,6,-1
 286 858 l 1,7,-1
 286 144 l 1,8,-1
 144 144 l 1,4,5
144 858 m 1,9,-1
 0 858 l 1,10,-1
 0 1002 l 1,11,-1
 144 1002 l 1,12,-1
 144 858 l 1,9,-1
EndSplineSet
EndChar

StartChar: asterisk
Encoding: 42 42 13
Width: 571
GlyphClass: 2
Flags: W
LayerCount: 2
Fore
SplineSet
286 572 m 1,0,-1
 286 716 l 1,1,-1
 430 716 l 1,2,-1
 430 572 l 1,3,-1
 286 572 l 1,0,-1
0 572 m 1,4,-1
 0 716 l 1,5,-1
 144 716 l 1,6,-1
 144 572 l 1,7,-1
 0 572 l 1,4,-1
144 716 m 1,8,-1
 144 858 l 1,9,-1
 286 858 l 1,10,-1
 286 716 l 1,11,-1
 144 716 l 1,8,-1
286 858 m 1,12,-1
 286 1002 l 1,13,-1
 430 1002 l 1,14,-1
 430 858 l 1,15,-1
 286 858 l 1,12,-1
144 858 m 1,16,-1
 0 858 l 1,17,-1
 0 1002 l 1,18,-1
 144 1002 l 1,19,-1
 144 858 l 1,16,-1
EndSplineSet
EndChar

StartChar: plus
Encoding: 43 43 14
Width: 857
GlyphClass: 2
Flags: W
LayerCount: 2
Fore
SplineSet
286 144 m 1,0,1
 286 144 286 144 286 430 c 1,2,3
 286 430 286 430 0 430 c 1,4,-1
 0 572 l 1,5,6
 0 572 0 572 286 572 c 1,7,8
 286 572 286 572 286 858 c 1,9,-1
 430 858 l 1,10,11
 430 858 430 858 430 572 c 1,12,13
 430 572 430 572 716 572 c 1,14,-1
 716 430 l 1,15,16
 716 430 716 430 430 430 c 1,17,-1
 430 144 l 1,18,-1
 286 144 l 1,0,1
EndSplineSet
EndChar

StartChar: comma
Encoding: 44 44 15
Width: 285
GlyphClass: 2
Flags: W
LayerCount: 2
Fore
SplineSet
0 0 m 1,0,1
 0 0 0 0 0 286 c 1,2,-1
 144 286 l 1,3,-1
 144 0 l 1,4,-1
 0 0 l 1,0,1
EndSplineSet
EndChar

StartChar: hyphen
Encoding: 45 45 16
Width: 714
GlyphClass: 2
Flags: W
LayerCount: 2
Fore
SplineSet
572 572 m 5,0,-1
 572 430 l 5,1,2
 572 430 572 430 0 430 c 5,3,-1
 0 572 l 5,4,-1
 572 572 l 5,0,-1
EndSplineSet
EndChar

StartChar: period
Encoding: 46 46 17
Width: 285
GlyphClass: 2
Flags: W
LayerCount: 2
Fore
SplineSet
0 0 m 1,0,-1
 0 144 l 1,1,-1
 144 144 l 1,2,-1
 144 0 l 1,3,-1
 0 0 l 1,0,-1
EndSplineSet
EndChar

StartChar: slash
Encoding: 47 47 18
Width: 571
GlyphClass: 2
Flags: W
LayerCount: 2
Fore
SplineSet
0 0 m 5,0,1
 0 0 0 0 0 286 c 5,2,-1
 144 286 l 5,3,-1
 144 0 l 5,4,-1
 0 0 l 5,0,1
144 286 m 5,5,6
 144 286 144 286 144 716 c 5,7,-1
 286 716 l 5,8,9
 286 716 286 716 286 286 c 5,10,-1
 144 286 l 5,5,6
286 716 m 5,11,12
 286 716 286 716 286 1002 c 5,13,-1
 430 1002 l 5,14,15
 430 1002 430 1002 430 716 c 5,16,-1
 286 716 l 5,11,12
EndSplineSet
EndChar

StartChar: zero
Encoding: 48 48 19
Width: 714
GlyphClass: 2
Flags: W
LayerCount: 2
Fore
SplineSet
430 144 m 1,0,-1
 430 0 l 1,1,2
 430 0 430 0 144 0 c 1,3,-1
 144 144 l 1,4,-1
 430 144 l 1,0,-1
430 144 m 1,5,6
 430 144 430 144 430 858 c 1,7,-1
 572 858 l 1,8,9
 572 858 572 858 572 144 c 1,10,-1
 430 144 l 1,5,6
144 144 m 1,11,-1
 0 144 l 1,12,13
 0 144 0 144 0 858 c 1,14,-1
 144 858 l 1,15,16
 144 859 144 859 144 144 c 1,11,-1
430 858 m 1,17,18
 430 858 430 858 144 858 c 1,19,-1
 144 1002 l 1,20,21
 144 1002 144 1002 430 1002 c 1,22,-1
 430 858 l 1,17,18
EndSplineSet
EndChar

StartChar: one
Encoding: 49 49 20
Width: 571
GlyphClass: 2
Flags: W
LayerCount: 2
Fore
SplineSet
0 0 m 1,0,-1
 0 144 l 1,1,-1
 144 144 l 1,2,3
 144 144 144 144 144 716 c 1,4,-1
 0 716 l 1,5,-1
 0 858 l 1,6,-1
 144 858 l 1,7,-1
 144 1002 l 1,8,-1
 286 1002 l 1,9,10
 286 1002 286 1002 286 144 c 1,11,-1
 430 144 l 1,12,-1
 430 0 l 1,13,-1
 0 0 l 1,0,-1
EndSplineSet
EndChar

StartChar: two
Encoding: 50 50 21
Width: 714
GlyphClass: 2
Flags: W
LayerCount: 2
Fore
SplineSet
0 716 m 1,0,-1
 0 858 l 1,1,-1
 144 858 l 1,2,-1
 144 716 l 1,3,-1
 0 716 l 1,0,-1
572 144 m 1,4,-1
 572 0 l 1,5,6
 572 0 572 0 0 0 c 1,7,8
 0 0 0 0 0 286 c 1,9,-1
 144 286 l 1,10,-1
 144 144 l 1,11,-1
 572 144 l 1,4,-1
144 286 m 1,12,-1
 144 430 l 1,13,-1
 286 430 l 1,14,-1
 286 286 l 1,15,-1
 144 286 l 1,12,-1
286 430 m 1,16,-1
 286 572 l 1,17,-1
 430 572 l 1,18,-1
 430 430 l 1,19,-1
 286 430 l 1,16,-1
430 572 m 1,20,21
 430 572 430 572 430 858 c 1,22,-1
 572 858 l 1,23,24
 572 858 572 858 572 572 c 1,25,-1
 430 572 l 1,20,21
430 858 m 1,26,27
 430 858 430 858 144 858 c 1,28,-1
 144 1002 l 1,29,30
 144 1002 144 1002 430 1002 c 1,31,-1
 430 858 l 1,26,27
EndSplineSet
EndChar

StartChar: three
Encoding: 51 51 22
Width: 714
GlyphClass: 2
Flags: W
LayerCount: 2
Fore
SplineSet
0 716 m 1,0,-1
 0 858 l 1,1,-1
 144 858 l 1,2,-1
 144 716 l 1,3,-1
 0 716 l 1,0,-1
430 144 m 1,4,-1
 430 0 l 1,5,6
 430 0 430 0 144 0 c 1,7,-1
 144 144 l 1,8,-1
 430 144 l 1,4,-1
430 144 m 1,9,10
 430 144 430 144 430 430 c 1,11,-1
 572 430 l 1,12,13
 572 430 572 430 572 144 c 1,14,-1
 430 144 l 1,9,10
144 144 m 1,15,-1
 0 144 l 1,16,-1
 0 286 l 1,17,-1
 144 286 l 1,18,-1
 144 144 l 1,15,-1
430 430 m 1,19,-1
 286 430 l 1,20,-1
 286 572 l 1,21,-1
 430 572 l 1,22,-1
 430 430 l 1,19,-1
430 572 m 1,23,24
 430 572 430 572 430 858 c 1,25,-1
 572 858 l 1,26,27
 572 858 572 858 572 572 c 1,28,-1
 430 572 l 1,23,24
430 858 m 1,29,30
 430 858 430 858 144 858 c 1,31,-1
 144 1002 l 1,32,33
 144 1002 144 1002 430 1002 c 1,34,-1
 430 858 l 1,29,30
EndSplineSet
EndChar

StartChar: four
Encoding: 52 52 23
Width: 714
GlyphClass: 2
Flags: W
LayerCount: 2
Fore
SplineSet
430 0 m 1,0,1
 430 0 430 0 430 286 c 1,2,3
 430 286 430 286 0 286 c 1,4,5
 0 286 0 286 0 1002 c 1,6,-1
 144 1002 l 1,7,8
 144 1002 144 1002 144 430 c 1,9,10
 144 430 144 430 430 430 c 1,11,12
 430 430 430 430 430 1002 c 1,13,-1
 572 1002 l 1,14,-1
 572 0 l 1,15,-1
 430 0 l 1,0,1
EndSplineSet
EndChar

StartChar: five
Encoding: 53 53 24
Width: 714
GlyphClass: 2
Flags: W
LayerCount: 2
Fore
SplineSet
430 144 m 1,0,-1
 430 0 l 1,1,2
 430 0 430 0 0 0 c 1,3,-1
 0 144 l 1,4,-1
 430 144 l 1,0,-1
430 144 m 1,5,6
 430 144 430 144 430 430 c 1,7,-1
 572 430 l 1,8,9
 572 430 572 430 572 144 c 1,10,-1
 430 144 l 1,5,6
430 430 m 1,11,12
 430 430 430 430 0 430 c 1,13,14
 0 430 0 430 0 1002 c 1,15,16
 0 1002 0 1002 572 1002 c 1,17,-1
 572 858 l 1,18,19
 572 858 572 858 144 858 c 1,20,21
 144 858 144 858 144 572 c 1,22,23
 144 572 144 572 430 572 c 1,24,-1
 430 430 l 1,11,12
EndSplineSet
EndChar

StartChar: six
Encoding: 54 54 25
Width: 714
GlyphClass: 2
Flags: W
LayerCount: 2
Fore
SplineSet
430 716 m 1,0,-1
 430 858 l 1,1,-1
 572 858 l 1,2,-1
 572 716 l 1,3,-1
 430 716 l 1,0,-1
430 144 m 1,4,-1
 430 0 l 1,5,6
 430 0 430 0 144 0 c 1,7,-1
 144 144 l 1,8,-1
 430 144 l 1,4,-1
430 144 m 1,9,10
 430 144 430 144 430 430 c 1,11,-1
 572 430 l 1,12,13
 572 430 572 430 572 144 c 1,14,-1
 430 144 l 1,9,10
144 144 m 1,15,-1
 0 144 l 1,16,17
 0 144 0 144 0 858 c 1,18,-1
 144 858 l 1,19,20
 144 858 144 858 144 572 c 1,21,22
 144 572 144 572 430 572 c 1,23,-1
 430 430 l 1,24,25
 430 430 430 430 144 430 c 1,26,27
 144 430 144 430 144 144 c 1,15,-1
430 858 m 1,28,29
 430 858 430 858 144 858 c 1,30,-1
 144 1002 l 1,31,32
 144 1002 144 1002 430 1002 c 1,33,-1
 430 858 l 1,28,29
EndSplineSet
EndChar

StartChar: seven
Encoding: 55 55 26
Width: 714
GlyphClass: 2
Flags: W
LayerCount: 2
Fore
SplineSet
144 0 m 1,0,1
 144 0 144 0 144 286 c 1,2,-1
 286 286 l 1,3,-1
 286 0 l 1,4,-1
 144 0 l 1,0,1
286 286 m 1,5,6
 286 286 286 286 286 572 c 1,7,-1
 430 572 l 1,8,9
 430 572 430 572 430 286 c 1,10,-1
 286 286 l 1,5,6
430 572 m 1,11,12
 430 572 430 572 430 858 c 1,13,14
 430 858 430 858 0 858 c 1,15,-1
 0 1002 l 1,16,17
 0 1002 0 1002 572 1002 c 1,18,19
 572 1002 572 1002 572 572 c 1,20,-1
 430 572 l 1,11,12
EndSplineSet
EndChar

StartChar: eight
Encoding: 56 56 27
Width: 714
GlyphClass: 2
Flags: W
LayerCount: 2
Fore
SplineSet
430 144 m 1,0,-1
 430 0 l 1,1,2
 430 0 430 0 144 0 c 1,3,-1
 144 144 l 1,4,-1
 430 144 l 1,0,-1
430 144 m 1,5,6
 430 144 430 144 430 430 c 1,7,-1
 572 430 l 1,8,9
 572 430 572 430 572 144 c 1,10,-1
 430 144 l 1,5,6
144 144 m 1,11,-1
 0 144 l 1,12,13
 0 144 0 144 0 430 c 1,14,-1
 144 430 l 1,15,16
 144 430 144 430 144 144 c 1,11,-1
430 430 m 1,17,18
 430 430 430 430 144 430 c 1,19,-1
 144 572 l 1,20,21
 144 572 144 572 430 572 c 1,22,-1
 430 430 l 1,17,18
430 572 m 1,23,24
 430 572 430 572 430 858 c 1,25,-1
 572 858 l 1,26,27
 572 858 572 858 572 572 c 1,28,-1
 430 572 l 1,23,24
144 572 m 1,29,-1
 0 572 l 1,30,31
 0 572 0 572 0 858 c 1,32,-1
 144 858 l 1,33,34
 144 858 144 858 144 572 c 1,29,-1
430 858 m 1,35,36
 430 858 430 858 144 858 c 1,37,-1
 144 1002 l 1,38,39
 144 1002 144 1002 430 1002 c 1,40,-1
 430 858 l 1,35,36
EndSplineSet
EndChar

StartChar: nine
Encoding: 57 57 28
Width: 714
GlyphClass: 2
Flags: W
LayerCount: 2
Fore
SplineSet
430 144 m 1,0,-1
 430 0 l 1,1,2
 430 0 430 0 144 0 c 1,3,-1
 144 144 l 1,4,-1
 430 144 l 1,0,-1
430 144 m 1,5,6
 430 144 430 144 430 430 c 1,7,8
 430 430 430 430 144 430 c 1,9,-1
 144 572 l 1,10,11
 144 572 144 572 430 572 c 1,12,13
 430 572 430 572 430 858 c 1,14,-1
 572 858 l 1,15,16
 572 858 572 858 572 144 c 1,17,-1
 430 144 l 1,5,6
144 144 m 1,18,-1
 0 144 l 1,19,-1
 0 286 l 1,20,-1
 144 286 l 1,21,-1
 144 144 l 1,18,-1
144 572 m 1,22,-1
 0 572 l 1,23,24
 0 572 0 572 0 858 c 1,25,-1
 144 858 l 1,26,27
 144 858 144 858 144 572 c 1,22,-1
430 858 m 1,28,29
 430 858 430 858 144 858 c 1,30,-1
 144 1002 l 1,31,32
 144 1002 144 1002 430 1002 c 1,33,-1
 430 858 l 1,28,29
EndSplineSet
EndChar

StartChar: colon
Encoding: 58 58 29
Width: 285
GlyphClass: 2
Flags: W
LayerCount: 2
Fore
SplineSet
0 0 m 1,0,-1
 0 144 l 1,1,-1
 144 144 l 1,2,-1
 144 0 l 1,3,-1
 0 0 l 1,0,-1
0 572 m 1,4,-1
 0 716 l 1,5,-1
 144 716 l 1,6,-1
 144 572 l 1,7,-1
 0 572 l 1,4,-1
EndSplineSet
EndChar

StartChar: semicolon
Encoding: 59 59 30
Width: 285
GlyphClass: 2
Flags: W
LayerCount: 2
Fore
SplineSet
0 0 m 1,0,1
 0 0 0 0 0 286 c 1,2,-1
 144 286 l 1,3,-1
 144 0 l 1,4,-1
 0 0 l 1,0,1
0 572 m 1,5,-1
 0 716 l 1,6,-1
 144 716 l 1,7,-1
 144 572 l 1,8,-1
 0 572 l 1,5,-1
EndSplineSet
EndChar

StartChar: less
Encoding: 60 60 31
Width: 714
GlyphClass: 2
Flags: W
LayerCount: 2
Fore
SplineSet
430 0 m 1,0,-1
 430 144 l 1,1,-1
 572 144 l 1,2,-1
 572 0 l 1,3,-1
 430 0 l 1,0,-1
430 144 m 1,4,-1
 286 144 l 1,5,-1
 286 286 l 1,6,-1
 430 286 l 1,7,-1
 430 144 l 1,4,-1
286 286 m 1,8,-1
 144 286 l 1,9,-1
 144 430 l 1,10,-1
 286 430 l 1,11,-1
 286 286 l 1,8,-1
144 430 m 1,12,-1
 0 430 l 1,13,-1
 0 572 l 1,14,-1
 144 572 l 1,15,-1
 144 430 l 1,12,-1
144 572 m 1,16,-1
 144 716 l 1,17,-1
 286 716 l 1,18,-1
 286 572 l 1,19,-1
 144 572 l 1,16,-1
286 716 m 1,20,-1
 286 858 l 1,21,-1
 430 858 l 1,22,-1
 430 716 l 1,23,-1
 286 716 l 1,20,-1
430 858 m 1,24,-1
 430 1002 l 1,25,-1
 572 1002 l 1,26,-1
 572 858 l 1,27,-1
 430 858 l 1,24,-1
EndSplineSet
EndChar

StartChar: equal
Encoding: 61 61 32
Width: 714
GlyphClass: 2
Flags: W
LayerCount: 2
Fore
SplineSet
572 286 m 1,0,-1
 572 144 l 1,1,2
 572 144 572 144 0 144 c 1,3,-1
 0 286 l 1,4,-1
 572 286 l 1,0,-1
572 716 m 1,5,-1
 572 572 l 1,6,7
 572 572 572 572 0 572 c 1,8,-1
 0 716 l 1,9,10
 0 716 0 716 572 716 c 1,5,-1
EndSplineSet
EndChar

StartChar: greater
Encoding: 62 62 33
Width: 714
GlyphClass: 2
Flags: W
LayerCount: 2
Fore
SplineSet
0 0 m 1,0,-1
 0 144 l 1,1,-1
 144 144 l 1,2,-1
 144 0 l 1,3,-1
 0 0 l 1,0,-1
144 144 m 1,4,-1
 144 286 l 1,5,-1
 286 286 l 1,6,-1
 286 144 l 1,7,-1
 144 144 l 1,4,-1
286 286 m 1,8,-1
 286 430 l 1,9,-1
 430 430 l 1,10,-1
 430 286 l 1,11,-1
 286 286 l 1,8,-1
430 430 m 1,12,-1
 430 572 l 1,13,-1
 572 572 l 1,14,-1
 572 430 l 1,15,-1
 430 430 l 1,12,-1
430 572 m 1,16,-1
 286 572 l 1,17,-1
 286 716 l 1,18,-1
 430 716 l 1,19,-1
 430 572 l 1,16,-1
286 716 m 1,20,-1
 144 716 l 1,21,-1
 144 858 l 1,22,-1
 286 858 l 1,23,-1
 286 716 l 1,20,-1
144 858 m 1,24,-1
 0 858 l 1,25,-1
 0 1002 l 1,26,-1
 144 1002 l 1,27,-1
 144 858 l 1,24,-1
EndSplineSet
EndChar

StartChar: question
Encoding: 63 63 34
Width: 714
GlyphClass: 2
Flags: W
LayerCount: 2
Fore
SplineSet
144 0 m 1,0,-1
 144 144 l 1,1,-1
 286 144 l 1,2,-1
 286 0 l 1,3,-1
 144 0 l 1,0,-1
144 286 m 1,4,-1
 144 430 l 1,5,-1
 286 430 l 1,6,-1
 286 286 l 1,7,-1
 144 286 l 1,4,-1
0 716 m 1,8,-1
 0 858 l 1,9,-1
 144 858 l 1,10,-1
 144 716 l 1,11,-1
 0 716 l 1,8,-1
286 430 m 1,12,-1
 286 572 l 1,13,-1
 430 572 l 1,14,-1
 430 430 l 1,15,-1
 286 430 l 1,12,-1
430 572 m 1,16,17
 430 572 430 572 430 858 c 1,18,-1
 572 858 l 1,19,-1
 572 572 l 1,20,-1
 430 572 l 1,16,17
430 858 m 1,21,22
 430 858 430 858 144 858 c 1,23,-1
 144 1002 l 1,24,25
 144 1002 144 1002 430 1002 c 1,26,-1
 430 858 l 1,21,22
EndSplineSet
EndChar

StartChar: at
Encoding: 64 64 35
Width: 1000
GlyphClass: 2
Flags: W
LayerCount: 2
Fore
SplineSet
716 144 m 1,0,-1
 716 0 l 1,1,2
 716 0 716 0 144 0 c 1,3,-1
 144 144 l 1,4,-1
 716 144 l 1,0,-1
716 144 m 1,5,-1
 716 286 l 1,6,-1
 858 286 l 1,7,-1
 858 144 l 1,8,-1
 716 144 l 1,5,-1
144 144 m 1,9,-1
 0 144 l 1,10,11
 0 144 0 144 0 858 c 1,12,-1
 144 858 l 1,13,14
 144 859 144 859 144 144 c 1,9,-1
286 286 m 1,15,16
 286 286 286 286 286 572 c 1,17,-1
 430 572 l 1,18,-1
 430 430 l 1,19,-1
 572 430 l 1,20,-1
 572 286 l 1,21,22
 572 286 572 286 286 286 c 1,15,16
572 430 m 1,23,-1
 572 572 l 1,24,-1
 716 572 l 1,25,-1
 716 430 l 1,26,-1
 572 430 l 1,23,-1
716 572 m 1,27,28
 716 572 716 572 716 858 c 1,29,-1
 858 858 l 1,30,31
 858 858 858 858 858 572 c 1,32,-1
 716 572 l 1,27,28
430 572 m 1,33,-1
 430 716 l 1,34,-1
 572 716 l 1,35,-1
 572 572 l 1,36,-1
 430 572 l 1,33,-1
716 858 m 1,37,38
 716 858 716 858 144 858 c 1,39,-1
 144 1002 l 1,40,41
 144 1002 144 1002 716 1002 c 1,42,-1
 716 858 l 1,37,38
EndSplineSet
EndChar

StartChar: A
Encoding: 65 65 36
Width: 857
GlyphClass: 2
Flags: W
LayerCount: 2
Fore
SplineSet
572 0 m 1,0,1
 572 0 572 0 572 286 c 1,2,-1
 716 286 l 1,3,-1
 716 0 l 1,4,-1
 572 0 l 1,0,1
0 0 m 1,5,6
 0 0 0 0 0 286 c 1,7,-1
 144 286 l 1,8,9
 144 286 144 286 144 0 c 1,10,-1
 0 0 l 1,5,6
572 286 m 1,11,12
 572 286 572 286 144 286 c 1,13,14
 144 286 144 286 144 716 c 1,15,-1
 286 716 l 1,16,17
 286 716 286 716 286 430 c 1,18,-1
 430 430 l 1,19,20
 430 430 430 430 430 716 c 1,21,-1
 572 716 l 1,22,23
 572 716 572 716 572 286 c 1,11,12
286 716 m 1,24,25
 286 716 286 716 286 1002 c 1,26,-1
 430 1002 l 1,27,28
 430 1002 430 1002 430 716 c 1,29,-1
 286 716 l 1,24,25
EndSplineSet
EndChar

StartChar: B
Encoding: 66 66 37
Width: 714
GlyphClass: 2
Flags: W
LayerCount: 2
Fore
SplineSet
430 144 m 1,0,1
 430 144 430 144 430 430 c 1,2,3
 430 430 430 430 144 430 c 1,4,5
 144 430 144 430 144 144 c 1,6,-1
 430 144 l 1,0,1
0 0 m 1,7,8
 0 0 0 0 0 1002 c 1,9,10
 0 1002 0 1002 430 1002 c 1,11,-1
 430 858 l 1,12,-1
 572 858 l 1,13,14
 572 858 572 858 572 572 c 1,15,-1
 430 572 l 1,16,17
 430 572 430 572 430 858 c 1,18,19
 430 858 430 858 144 858 c 1,20,21
 144 858 144 858 144 572 c 1,22,23
 144 572 144 572 430 572 c 1,24,-1
 430 430 l 1,25,-1
 572 430 l 1,26,27
 572 430 572 430 572 144 c 1,28,-1
 430 144 l 1,29,-1
 430 0 l 1,30,31
 430 0 430 0 0 0 c 1,7,8
EndSplineSet
EndChar

StartChar: C
Encoding: 67 67 38
Width: 714
GlyphClass: 2
Flags: W
LayerCount: 2
Fore
SplineSet
430 716 m 1,0,-1
 430 858 l 1,1,-1
 572 858 l 1,2,-1
 572 716 l 1,3,-1
 430 716 l 1,0,-1
430 144 m 1,4,-1
 430 0 l 1,5,6
 430 0 430 0 144 0 c 1,7,-1
 144 144 l 1,8,-1
 430 144 l 1,4,-1
430 144 m 1,9,-1
 430 286 l 1,10,-1
 572 286 l 1,11,-1
 572 144 l 1,12,-1
 430 144 l 1,9,-1
144 144 m 1,13,-1
 0 144 l 1,14,15
 0 144 0 144 0 858 c 1,16,-1
 144 858 l 1,17,18
 144 859 144 859 144 144 c 1,13,-1
430 858 m 1,19,20
 430 858 430 858 144 858 c 1,21,-1
 144 1002 l 1,22,23
 144 1002 144 1002 430 1002 c 1,24,-1
 430 858 l 1,19,20
EndSplineSet
EndChar

StartChar: D
Encoding: 68 68 39
Width: 714
GlyphClass: 2
Flags: W
LayerCount: 2
Fore
SplineSet
430 144 m 1,0,1
 430 144 430 144 430 858 c 1,2,3
 430 858 430 858 144 858 c 1,4,5
 144 858 144 858 144 144 c 1,6,-1
 430 144 l 1,0,1
0 0 m 1,7,8
 0 0 0 0 0 1002 c 1,9,10
 0 1002 0 1002 430 1002 c 1,11,-1
 430 858 l 1,12,-1
 572 858 l 1,13,14
 572 858 572 858 572 144 c 1,15,-1
 430 144 l 1,16,-1
 430 0 l 1,17,18
 430 0 430 0 0 0 c 1,7,8
EndSplineSet
EndChar

StartChar: E
Encoding: 69 69 40
Width: 714
GlyphClass: 2
Flags: W
LayerCount: 2
Fore
SplineSet
572 144 m 1,0,-1
 572 0 l 1,1,2
 572 0 572 0 0 0 c 1,3,4
 0 0 0 0 0 1002 c 1,5,6
 0 1002 0 1002 572 1002 c 1,7,-1
 572 858 l 1,8,9
 572 858 572 858 144 858 c 1,10,11
 144 858 144 858 144 572 c 1,12,13
 144 572 144 572 430 572 c 1,14,-1
 430 430 l 1,15,16
 430 430 430 430 144 430 c 1,17,18
 144 430 144 430 144 144 c 1,19,-1
 572 144 l 1,0,-1
EndSplineSet
EndChar

StartChar: F
Encoding: 70 70 41
Width: 714
GlyphClass: 2
Flags: W
LayerCount: 2
Fore
SplineSet
0 0 m 1,0,1
 0 0 0 0 0 1002 c 1,2,3
 0 1002 0 1002 572 1002 c 1,4,-1
 572 858 l 1,5,6
 572 858 572 858 144 858 c 1,7,8
 144 858 144 858 144 572 c 1,9,10
 144 572 144 572 430 572 c 1,11,-1
 430 430 l 1,12,13
 430 430 430 430 144 430 c 1,14,-1
 144 0 l 1,15,-1
 0 0 l 1,0,1
EndSplineSet
EndChar

StartChar: G
Encoding: 71 71 42
Width: 714
GlyphClass: 2
Flags: W
LayerCount: 2
Fore
SplineSet
430 716 m 1,0,-1
 430 858 l 1,1,-1
 572 858 l 1,2,-1
 572 716 l 1,3,-1
 430 716 l 1,0,-1
430 144 m 1,4,-1
 430 0 l 1,5,6
 430 0 430 0 144 0 c 1,7,-1
 144 144 l 1,8,-1
 430 144 l 1,4,-1
430 144 m 1,9,10
 430 144 430 144 430 430 c 1,11,-1
 286 430 l 1,12,-1
 286 572 l 1,13,14
 286 572 286 572 572 572 c 1,15,16
 572 572 572 572 572 144 c 1,17,-1
 430 144 l 1,9,10
144 144 m 1,18,-1
 0 144 l 1,19,20
 0 144 0 144 0 858 c 1,21,-1
 144 858 l 1,22,23
 144 859 144 859 144 144 c 1,18,-1
430 858 m 1,24,25
 430 858 430 858 144 858 c 1,26,-1
 144 1002 l 1,27,28
 144 1002 144 1002 430 1002 c 1,29,-1
 430 858 l 1,24,25
EndSplineSet
EndChar

StartChar: H
Encoding: 72 72 43
Width: 714
GlyphClass: 2
Flags: W
LayerCount: 2
Fore
SplineSet
430 0 m 1,0,1
 430 0 430 0 430 430 c 1,2,3
 430 430 430 430 144 430 c 1,4,5
 144 430 144 430 144 0 c 1,6,-1
 0 0 l 1,7,8
 0 0 0 0 0 1002 c 1,9,-1
 144 1002 l 1,10,11
 144 1002 144 1002 144 572 c 1,12,13
 144 572 144 572 430 572 c 1,14,15
 430 572 430 572 430 1002 c 1,16,-1
 572 1002 l 1,17,-1
 572 0 l 1,18,-1
 430 0 l 1,0,1
EndSplineSet
EndChar

StartChar: I
Encoding: 73 73 44
Width: 571
GlyphClass: 2
Flags: W
LayerCount: 2
Fore
SplineSet
0 0 m 1,0,-1
 0 144 l 1,1,-1
 144 144 l 1,2,3
 144 144 144 144 144 858 c 1,4,-1
 0 858 l 1,5,-1
 0 1002 l 1,6,7
 0 1002 0 1002 430 1002 c 1,8,-1
 430 858 l 1,9,-1
 286 858 l 1,10,11
 286 858 286 858 286 144 c 1,12,-1
 430 144 l 1,13,-1
 430 0 l 1,14,-1
 0 0 l 1,0,-1
EndSplineSet
EndChar

StartChar: J
Encoding: 74 74 45
Width: 714
GlyphClass: 2
Flags: W
LayerCount: 2
Fore
SplineSet
286 144 m 1,0,-1
 286 0 l 1,1,2
 286 0 286 0 0 0 c 1,3,-1
 0 144 l 1,4,-1
 286 144 l 1,0,-1
286 144 m 1,5,6
 286 144 286 144 286 858 c 1,7,8
 286 858 286 858 0 858 c 1,9,-1
 0 1002 l 1,10,11
 0 1002 0 1002 572 1002 c 1,12,-1
 572 858 l 1,13,-1
 430 858 l 1,14,15
 430 858 430 858 430 144 c 1,16,-1
 286 144 l 1,5,6
EndSplineSet
EndChar

StartChar: K
Encoding: 75 75 46
Width: 857
GlyphClass: 2
Flags: W
LayerCount: 2
Fore
SplineSet
572 0 m 1,0,-1
 572 144 l 1,1,-1
 716 144 l 1,2,-1
 716 0 l 1,3,-1
 572 0 l 1,0,-1
0 0 m 1,4,5
 0 0 0 0 0 1002 c 1,6,-1
 144 1002 l 1,7,8
 144 1002 144 1002 144 572 c 1,9,-1
 286 572 l 1,10,-1
 286 430 l 1,11,-1
 430 430 l 1,12,-1
 430 286 l 1,13,-1
 572 286 l 1,14,-1
 572 144 l 1,15,-1
 430 144 l 1,16,-1
 430 286 l 1,17,-1
 286 286 l 1,18,-1
 286 430 l 1,19,-1
 144 430 l 1,20,-1
 144 0 l 1,21,-1
 0 0 l 1,4,5
286 572 m 1,22,-1
 286 716 l 1,23,-1
 430 716 l 1,24,-1
 430 572 l 1,25,-1
 286 572 l 1,22,-1
430 716 m 1,26,-1
 430 858 l 1,27,-1
 572 858 l 1,28,-1
 572 716 l 1,29,-1
 430 716 l 1,26,-1
572 858 m 1,30,-1
 572 1002 l 1,31,-1
 716 1002 l 1,32,-1
 716 858 l 1,33,-1
 572 858 l 1,30,-1
EndSplineSet
EndChar

StartChar: L
Encoding: 76 76 47
Width: 714
GlyphClass: 2
Flags: W
LayerCount: 2
Fore
SplineSet
572 144 m 1,0,-1
 572 0 l 1,1,2
 572 0 572 0 0 0 c 1,3,4
 0 0 0 0 0 1002 c 1,5,-1
 144 1002 l 1,6,7
 144 1002 144 1002 144 144 c 1,8,-1
 572 144 l 1,0,-1
EndSplineSet
EndChar

StartChar: M
Encoding: 77 77 48
Width: 1000
GlyphClass: 2
Flags: W
LayerCount: 2
Fore
SplineSet
716 0 m 1,0,1
 716 0 716 0 716 716 c 1,2,-1
 572 716 l 1,3,-1
 572 572 l 1,4,5
 572 572 572 572 286 572 c 1,6,-1
 286 716 l 1,7,8
 286 716 286 716 572 716 c 1,9,-1
 572 858 l 1,10,-1
 716 858 l 1,11,-1
 716 1002 l 1,12,-1
 858 1002 l 1,13,-1
 858 0 l 1,14,-1
 716 0 l 1,0,1
0 0 m 1,15,16
 0 0 0 0 0 1002 c 1,17,-1
 144 1002 l 1,18,-1
 144 858 l 1,19,-1
 286 858 l 1,20,-1
 286 716 l 1,21,-1
 144 716 l 1,22,23
 144 716 144 716 144 0 c 1,24,-1
 0 0 l 1,15,16
EndSplineSet
EndChar

StartChar: N
Encoding: 78 78 49
Width: 857
GlyphClass: 2
Flags: W
LayerCount: 2
Fore
SplineSet
572 0 m 1,0,1
 572 0 572 0 572 430 c 1,2,-1
 430 430 l 1,3,-1
 430 572 l 1,4,-1
 572 572 l 1,5,6
 572 572 572 572 572 1002 c 1,7,-1
 716 1002 l 1,8,-1
 716 0 l 1,9,-1
 572 0 l 1,0,1
0 0 m 1,10,11
 0 0 0 0 0 1002 c 1,12,-1
 144 1002 l 1,13,-1
 144 858 l 1,14,-1
 286 858 l 1,15,-1
 286 716 l 1,16,-1
 430 716 l 1,17,-1
 430 572 l 1,18,-1
 286 572 l 1,19,-1
 286 716 l 1,20,-1
 144 716 l 1,21,22
 144 716 144 716 144 0 c 1,23,-1
 0 0 l 1,10,11
EndSplineSet
EndChar

StartChar: O
Encoding: 79 79 50
Width: 857
GlyphClass: 2
Flags: W
LayerCount: 2
Fore
SplineSet
572 144 m 1,0,-1
 572 0 l 1,1,2
 572 0 572 0 144 0 c 1,3,-1
 144 144 l 1,4,-1
 572 144 l 1,0,-1
572 144 m 1,5,6
 572 144 572 144 572 858 c 1,7,-1
 716 858 l 1,8,9
 716 858 716 858 716 144 c 1,10,-1
 572 144 l 1,5,6
144 144 m 1,11,-1
 0 144 l 1,12,13
 0 144 0 144 0 858 c 1,14,-1
 144 858 l 1,15,16
 144 859 144 859 144 144 c 1,11,-1
572 858 m 1,17,18
 572 858 572 858 144 858 c 1,19,-1
 144 1002 l 1,20,21
 144 1002 144 1002 572 1002 c 1,22,-1
 572 858 l 1,17,18
EndSplineSet
EndChar

StartChar: P
Encoding: 80 80 51
Width: 714
GlyphClass: 2
Flags: W
LayerCount: 2
Fore
SplineSet
0 0 m 1,0,1
 0 0 0 0 0 1002 c 1,2,3
 0 1002 0 1002 430 1002 c 1,4,-1
 430 858 l 1,5,-1
 572 858 l 1,6,7
 572 858 572 858 572 430 c 1,8,-1
 430 430 l 1,9,10
 430 430 430 430 430 858 c 1,11,12
 430 858 430 858 144 858 c 1,13,14
 144 858 144 858 144 430 c 1,15,16
 144 430 144 430 430 430 c 1,17,-1
 430 286 l 1,18,19
 430 286 430 286 144 286 c 1,20,-1
 144 0 l 1,21,-1
 0 0 l 1,0,1
EndSplineSet
EndChar

StartChar: Q
Encoding: 81 81 52
Width: 857
GlyphClass: 2
Flags: W
LayerCount: 2
Fore
SplineSet
572 0 m 1,0,-1
 572 144 l 1,1,-1
 716 144 l 1,2,-1
 716 0 l 1,3,-1
 572 0 l 1,0,-1
430 144 m 1,4,-1
 430 0 l 1,5,6
 430 0 430 0 144 0 c 1,7,-1
 144 144 l 1,8,-1
 430 144 l 1,4,-1
430 144 m 1,9,10
 430 144 430 144 430 858 c 1,11,-1
 572 858 l 1,12,13
 572 858 572 858 572 144 c 1,14,-1
 430 144 l 1,9,10
144 144 m 1,15,-1
 0 144 l 1,16,17
 0 144 0 144 0 858 c 1,18,-1
 144 858 l 1,19,20
 144 859 144 859 144 144 c 1,15,-1
430 858 m 1,21,22
 430 858 430 858 144 858 c 1,23,-1
 144 1002 l 1,24,25
 144 1002 144 1002 430 1002 c 1,26,-1
 430 858 l 1,21,22
EndSplineSet
EndChar

StartChar: R
Encoding: 82 82 53
Width: 714
GlyphClass: 2
Flags: W
LayerCount: 2
Fore
SplineSet
430 0 m 1,0,1
 430 0 430 0 430 430 c 1,2,-1
 572 430 l 1,3,-1
 572 0 l 1,4,-1
 430 0 l 1,0,1
0 0 m 1,5,6
 0 0 0 0 0 1002 c 1,7,8
 0 1002 0 1002 430 1002 c 1,9,-1
 430 858 l 1,10,-1
 572 858 l 1,11,12
 572 858 572 858 572 572 c 1,13,-1
 430 572 l 1,14,15
 430 572 430 572 430 858 c 1,16,17
 430 858 430 858 144 858 c 1,18,19
 144 858 144 858 144 572 c 1,20,21
 144 572 144 572 430 572 c 1,22,-1
 430 430 l 1,23,24
 430 430 430 430 144 430 c 1,25,26
 144 430 144 430 144 0 c 1,27,-1
 0 0 l 1,5,6
EndSplineSet
EndChar

StartChar: S
Encoding: 83 83 54
Width: 714
GlyphClass: 2
Flags: W
LayerCount: 2
Fore
SplineSet
430 716 m 1,0,-1
 430 858 l 1,1,-1
 572 858 l 1,2,-1
 572 716 l 1,3,-1
 430 716 l 1,0,-1
430 144 m 1,4,-1
 430 0 l 1,5,6
 430 0 430 0 144 0 c 1,7,-1
 144 144 l 1,8,-1
 430 144 l 1,4,-1
430 144 m 1,9,10
 430 144 430 144 430 430 c 1,11,-1
 572 430 l 1,12,13
 572 430 572 430 572 144 c 1,14,-1
 430 144 l 1,9,10
144 144 m 1,15,-1
 0 144 l 1,16,-1
 0 286 l 1,17,-1
 144 286 l 1,18,-1
 144 144 l 1,15,-1
430 430 m 1,19,20
 430 430 430 430 144 430 c 1,21,-1
 144 572 l 1,22,23
 144 572 144 572 430 572 c 1,24,-1
 430 430 l 1,19,20
144 572 m 1,25,-1
 0 572 l 1,26,27
 0 572 0 572 0 858 c 1,28,-1
 144 858 l 1,29,30
 144 858 144 858 144 572 c 1,25,-1
430 858 m 1,31,32
 430 858 430 858 144 858 c 1,33,-1
 144 1002 l 1,34,35
 144 1002 144 1002 430 1002 c 1,36,-1
 430 858 l 1,31,32
EndSplineSet
EndChar

StartChar: T
Encoding: 84 84 55
Width: 857
GlyphClass: 2
Flags: W
LayerCount: 2
Fore
SplineSet
286 0 m 1,0,1
 286 0 286 0 286 858 c 1,2,3
 286 858 286 858 0 858 c 1,4,-1
 0 1002 l 1,5,6
 0 1002 0 1002 716 1002 c 1,7,-1
 716 858 l 1,8,9
 716 858 716 858 430 858 c 1,10,-1
 430 0 l 1,11,-1
 286 0 l 1,0,1
EndSplineSet
EndChar

StartChar: U
Encoding: 85 85 56
Width: 857
GlyphClass: 2
Flags: W
LayerCount: 2
Fore
SplineSet
572 144 m 1,0,-1
 572 0 l 1,1,2
 572 0 572 0 144 0 c 1,3,-1
 144 144 l 1,4,-1
 572 144 l 1,0,-1
572 144 m 1,5,6
 572 144 572 144 572 1002 c 1,7,-1
 716 1002 l 1,8,9
 716 1002 716 1002 716 144 c 1,10,-1
 572 144 l 1,5,6
144 144 m 1,11,-1
 0 144 l 1,12,13
 0 144 0 144 0 1002 c 1,14,-1
 144 1002 l 1,15,16
 144 1002 144 1002 144 144 c 1,11,-1
EndSplineSet
EndChar

StartChar: V
Encoding: 86 86 57
Width: 857
GlyphClass: 2
Flags: W
LayerCount: 2
Fore
SplineSet
286 0 m 5,0,1
 286 0 286 0 286 286 c 5,2,-1
 430 286 l 5,3,-1
 430 0 l 5,4,-1
 286 0 l 5,0,1
430 286 m 5,5,6
 430 286 430 286 430 572 c 5,7,-1
 572 572 l 5,8,9
 572 572 572 572 572 286 c 5,10,-1
 430 286 l 5,5,6
286 286 m 5,11,-1
 144 286 l 5,12,13
 144 286 144 286 144 572 c 5,14,-1
 286 572 l 5,15,16
 286 572 286 572 286 286 c 5,11,-1
572 572 m 5,17,18
 572 572 572 572 572 1002 c 5,19,-1
 716 1002 l 5,20,21
 716 1002 716 1002 716 572 c 5,22,-1
 572 572 l 5,17,18
144 572 m 5,23,-1
 0 572 l 5,24,25
 0 572 0 572 0 1002 c 5,26,-1
 144 1002 l 5,27,28
 144 1002 144 1002 144 572 c 5,23,-1
EndSplineSet
EndChar

StartChar: W
Encoding: 87 87 58
Width: 1000
GlyphClass: 2
Flags: W
LayerCount: 2
Fore
SplineSet
716 0 m 1,0,-1
 716 144 l 1,1,-1
 572 144 l 1,2,-1
 572 286 l 1,3,-1
 716 286 l 1,4,5
 716 286 716 286 716 1002 c 1,6,-1
 858 1002 l 1,7,-1
 858 0 l 1,8,-1
 716 0 l 1,0,-1
0 0 m 1,9,10
 0 0 0 0 0 1002 c 1,11,-1
 144 1002 l 1,12,13
 144 1002 144 1002 144 286 c 1,14,-1
 286 286 l 1,15,-1
 286 144 l 1,16,-1
 144 144 l 1,17,-1
 144 0 l 1,18,-1
 0 0 l 1,9,10
572 286 m 1,19,20
 572 286 572 286 286 286 c 1,21,-1
 286 430 l 1,22,23
 286 430 286 430 572 430 c 1,24,-1
 572 286 l 1,19,20
EndSplineSet
EndChar

StartChar: X
Encoding: 88 88 59
Width: 857
GlyphClass: 2
Flags: W
LayerCount: 2
Fore
SplineSet
572 0 m 1,0,1
 572 0 572 0 572 286 c 1,2,-1
 716 286 l 1,3,-1
 716 0 l 1,4,-1
 572 0 l 1,0,1
0 0 m 1,5,6
 0 0 0 0 0 286 c 1,7,-1
 144 286 l 1,8,9
 144 286 144 286 144 0 c 1,10,-1
 0 0 l 1,5,6
572 286 m 1,11,-1
 430 286 l 1,12,-1
 430 430 l 1,13,-1
 572 430 l 1,14,-1
 572 286 l 1,11,-1
144 286 m 1,15,-1
 144 430 l 1,16,-1
 286 430 l 1,17,-1
 286 286 l 1,18,-1
 144 286 l 1,15,-1
286 430 m 1,19,-1
 286 572 l 1,20,-1
 430 572 l 1,21,-1
 430 430 l 1,22,-1
 286 430 l 1,19,-1
430 572 m 1,23,-1
 430 716 l 1,24,-1
 572 716 l 1,25,-1
 572 572 l 1,26,-1
 430 572 l 1,23,-1
286 572 m 1,27,-1
 144 572 l 1,28,-1
 144 716 l 1,29,-1
 286 716 l 1,30,-1
 286 572 l 1,27,-1
572 716 m 1,31,32
 572 716 572 716 572 1002 c 1,33,-1
 716 1002 l 1,34,35
 716 1002 716 1002 716 716 c 1,36,-1
 572 716 l 1,31,32
144 716 m 1,37,-1
 0 716 l 1,38,39
 0 716 0 716 0 1002 c 1,40,-1
 144 1002 l 1,41,42
 144 1002 144 1002 144 716 c 1,37,-1
EndSplineSet
EndChar

StartChar: Y
Encoding: 89 89 60
Width: 857
GlyphClass: 2
Flags: W
LayerCount: 2
Fore
SplineSet
286 0 m 1,0,1
 286 0 286 0 286 572 c 1,2,-1
 430 572 l 1,3,-1
 430 0 l 1,4,-1
 286 0 l 1,0,1
430 572 m 1,5,-1
 430 716 l 1,6,-1
 572 716 l 1,7,-1
 572 572 l 1,8,-1
 430 572 l 1,5,-1
286 572 m 1,9,-1
 144 572 l 1,10,-1
 144 716 l 1,11,-1
 286 716 l 1,12,-1
 286 572 l 1,9,-1
572 716 m 1,13,14
 572 716 572 716 572 1002 c 1,15,-1
 716 1002 l 1,16,17
 716 1002 716 1002 716 716 c 1,18,-1
 572 716 l 1,13,14
144 716 m 1,19,-1
 0 716 l 1,20,21
 0 716 0 716 0 1002 c 1,22,-1
 144 1002 l 1,23,24
 144 1002 144 1002 144 716 c 1,19,-1
EndSplineSet
EndChar

StartChar: Z
Encoding: 90 90 61
Width: 857
GlyphClass: 2
Flags: W
LayerCount: 2
Fore
SplineSet
716 144 m 1,0,-1
 716 0 l 1,1,2
 716 0 716 0 0 0 c 1,3,4
 0 0 0 0 0 286 c 1,5,-1
 144 286 l 1,6,-1
 144 144 l 1,7,-1
 716 144 l 1,0,-1
144 286 m 1,8,-1
 144 430 l 1,9,-1
 286 430 l 1,10,-1
 286 286 l 1,11,-1
 144 286 l 1,8,-1
286 430 m 1,12,-1
 286 572 l 1,13,-1
 430 572 l 1,14,-1
 430 430 l 1,15,-1
 286 430 l 1,12,-1
430 572 m 1,16,-1
 430 716 l 1,17,-1
 572 716 l 1,18,-1
 572 572 l 1,19,-1
 430 572 l 1,16,-1
572 716 m 1,20,-1
 572 858 l 1,21,22
 572 858 572 858 0 858 c 1,23,-1
 0 1002 l 1,24,25
 0 1002 0 1002 716 1002 c 1,26,27
 716 1002 716 1002 716 716 c 1,28,-1
 572 716 l 1,20,-1
EndSplineSet
EndChar

StartChar: bracketleft
Encoding: 91 91 62
Width: 428
GlyphClass: 2
Flags: W
LayerCount: 2
Fore
SplineSet
0 0 m 1,0,1
 0 0 0 0 0 1002 c 1,2,3
 0 1002 0 1002 286 1002 c 1,4,-1
 286 858 l 1,5,-1
 144 858 l 1,6,7
 144 858 144 858 144 144 c 1,8,-1
 286 144 l 1,9,-1
 286 0 l 1,10,-1
 0 0 l 1,0,1
EndSplineSet
EndChar

StartChar: backslash
Encoding: 92 92 63
Width: 571
GlyphClass: 2
Flags: W
LayerCount: 2
Fore
SplineSet
286 0 m 5,0,1
 286 0 286 0 286 286 c 5,2,-1
 430 286 l 5,3,-1
 430 0 l 5,4,-1
 286 0 l 5,0,1
286 286 m 5,5,-1
 144 286 l 5,6,7
 144 286 144 286 144 716 c 5,8,-1
 286 716 l 5,9,10
 286 716 286 716 286 286 c 5,5,-1
144 716 m 5,11,-1
 0 716 l 5,12,13
 0 716 0 716 0 1002 c 5,14,-1
 144 1002 l 5,15,16
 144 1002 144 1002 144 716 c 5,11,-1
EndSplineSet
EndChar

StartChar: bracketright
Encoding: 93 93 64
Width: 428
GlyphClass: 2
Flags: W
LayerCount: 2
Fore
SplineSet
0 0 m 1,0,-1
 0 144 l 1,1,-1
 144 144 l 1,2,3
 144 144 144 144 144 858 c 1,4,-1
 0 858 l 1,5,-1
 0 1002 l 1,6,7
 0 1002 0 1002 286 1002 c 1,8,9
 286 1002 286 1002 286 0 c 1,10,-1
 0 0 l 1,0,-1
EndSplineSet
EndChar

StartChar: asciicircum
Encoding: 94 94 65
Width: 857
GlyphClass: 2
Flags: W
LayerCount: 2
Fore
SplineSet
572 572 m 1,0,-1
 572 716 l 1,1,-1
 716 716 l 1,2,-1
 716 572 l 1,3,-1
 572 572 l 1,0,-1
0 572 m 1,4,-1
 0 716 l 1,5,-1
 144 716 l 1,6,-1
 144 572 l 1,7,-1
 0 572 l 1,4,-1
572 716 m 1,8,-1
 430 716 l 1,9,-1
 430 858 l 1,10,-1
 572 858 l 1,11,-1
 572 716 l 1,8,-1
144 716 m 1,12,-1
 144 858 l 1,13,-1
 286 858 l 1,14,-1
 286 716 l 1,15,-1
 144 716 l 1,12,-1
286 858 m 1,16,-1
 286 1002 l 1,17,-1
 430 1002 l 1,18,-1
 430 858 l 1,19,-1
 286 858 l 1,16,-1
EndSplineSet
EndChar

StartChar: underscore
Encoding: 95 95 66
Width: 857
GlyphClass: 2
Flags: W
LayerCount: 2
Fore
SplineSet
716 144 m 5,0,-1
 716 0 l 5,1,2
 716 0 716 0 0 0 c 5,3,-1
 0 144 l 5,4,-1
 716 144 l 5,0,-1
EndSplineSet
EndChar

StartChar: grave
Encoding: 96 96 67
Width: 428
GlyphClass: 2
Flags: W
LayerCount: 2
Fore
SplineSet
144 716 m 1,0,-1
 144 858 l 1,1,-1
 286 858 l 1,2,-1
 286 716 l 1,3,-1
 144 716 l 1,0,-1
144 858 m 1,4,-1
 0 858 l 1,5,-1
 0 1002 l 1,6,-1
 144 1002 l 1,7,-1
 144 858 l 1,4,-1
EndSplineSet
EndChar

StartChar: a
Encoding: 97 97 68
Width: 714
GlyphClass: 2
Flags: W
LayerCount: 2
Fore
SplineSet
144 0 m 1,0,-1
 144 144 l 1,1,-1
 0 144 l 1,2,3
 0 144 0 144 0 572 c 1,4,-1
 144 572 l 1,5,-1
 144 716 l 1,6,7
 144 716 144 716 572 716 c 1,8,9
 572 716 572 716 572 0 c 1,10,-1
 144 0 l 1,0,-1
430 144 m 1,11,12
 430 144 430 144 430 572 c 1,13,14
 430 572 430 572 144 572 c 1,15,16
 144 572 144 572 144 144 c 1,17,18
 144 144 144 144 430 144 c 1,11,12
EndSplineSet
EndChar

StartChar: b
Encoding: 98 98 69
Width: 714
GlyphClass: 2
Flags: W
LayerCount: 2
Fore
SplineSet
430 144 m 5,0,1
 430 144 430 144 430 572 c 5,2,3
 430 572 430 572 144 572 c 5,4,5
 144 572 144 572 144 144 c 5,6,-1
 430 144 l 5,0,1
0 0 m 5,8,9
 0 0 0 0 0 1002 c 5,10,-1
 144 1002 l 5,11,12
 144 1002 144 1002 144 716 c 5,13,14
 144 716 144 716 430 716 c 5,15,-1
 430 572 l 5,16,-1
 572 572 l 5,17,18
 572 572 572 572 572 144 c 5,19,-1
 430 144 l 5,20,-1
 430 0 l 5,21,22
 430 0 430 0 0 0 c 5,8,9
EndSplineSet
EndChar

StartChar: c
Encoding: 99 99 70
Width: 714
GlyphClass: 2
Flags: W
LayerCount: 2
Fore
SplineSet
430 144 m 1,0,-1
 430 286 l 1,1,-1
 572 286 l 1,2,-1
 572 144 l 1,3,-1
 430 144 l 1,0,-1
430 430 m 1,4,-1
 430 572 l 1,5,-1
 572 572 l 1,6,-1
 572 430 l 1,7,-1
 430 430 l 1,4,-1
430 144 m 1,8,-1
 430 0 l 1,9,10
 430 0 430 0 144 0 c 1,11,-1
 144 144 l 1,12,-1
 430 144 l 1,8,-1
144 144 m 1,13,-1
 0 144 l 1,14,15
 0 144 0 144 0 572 c 1,16,-1
 144 572 l 1,17,18
 144 573 144 573 144 144 c 1,13,-1
430 572 m 1,19,20
 430 572 430 572 144 572 c 1,21,-1
 144 716 l 1,22,23
 144 716 144 716 430 716 c 1,24,-1
 430 572 l 1,19,20
EndSplineSet
EndChar

StartChar: d
Encoding: 100 100 71
Width: 714
GlyphClass: 2
Flags: W
LayerCount: 2
Fore
SplineSet
144 0 m 1,0,-1
 144 144 l 1,1,-1
 0 144 l 1,2,3
 0 144 0 144 0 572 c 1,4,-1
 144 572 l 1,5,-1
 144 716 l 1,6,7
 144 716 144 716 430 716 c 1,8,9
 430 716 430 716 430 1002 c 1,10,-1
 572 1002 l 1,11,12
 572 1002 572 1002 572 0 c 1,13,-1
 144 0 l 1,0,-1
430 144 m 1,14,15
 430 144 430 144 430 572 c 1,16,17
 430 572 430 572 144 572 c 1,18,19
 144 572 144 572 144 144 c 1,20,21
 144 144 144 144 430 144 c 1,14,15
EndSplineSet
EndChar

StartChar: e
Encoding: 101 101 72
Width: 714
GlyphClass: 2
Flags: W
LayerCount: 2
Fore
SplineSet
572 144 m 1,0,-1
 572 0 l 1,1,2
 572 0 572 0 144 0 c 1,3,-1
 144 144 l 1,4,-1
 572 144 l 1,0,-1
144 144 m 1,5,-1
 0 144 l 1,6,7
 0 144 0 144 0 572 c 1,8,-1
 144 572 l 1,9,-1
 144 430 l 1,10,11
 144 430 144 430 430 430 c 1,12,-1
 430 572 l 1,13,-1
 572 572 l 1,14,15
 572 572 572 572 572 286 c 1,16,17
 572 286 572 286 144 286 c 1,18,-1
 144 144 l 1,5,-1
430 572 m 1,19,20
 430 572 430 572 144 572 c 1,21,-1
 144 716 l 1,22,23
 144 716 144 716 430 716 c 1,24,-1
 430 572 l 1,19,20
EndSplineSet
EndChar

StartChar: f
Encoding: 102 102 73
Width: 571
GlyphClass: 2
Flags: W
LayerCount: 2
Fore
SplineSet
0 0 m 1,0,1
 0 0 0 0 0 858 c 1,2,-1
 144 858 l 1,3,4
 144 858 144 858 144 572 c 1,5,6
 144 572 144 572 430 572 c 1,7,-1
 430 430 l 1,8,9
 430 430 430 430 144 430 c 1,10,-1
 144 0 l 1,11,-1
 0 0 l 1,0,1
430 1002 m 1,12,-1
 430 858 l 1,13,14
 430 858 430 858 144 858 c 1,15,-1
 144 1002 l 1,16,17
 144 1002 144 1002 430 1002 c 1,12,-1
EndSplineSet
EndChar

StartChar: g
Encoding: 103 103 74
Width: 714
GlyphClass: 2
Flags: W
LayerCount: 2
Fore
SplineSet
430 144 m 1,0,-1
 430 0 l 1,1,2
 430 0 430 0 0 0 c 1,3,-1
 0 144 l 1,4,-1
 430 144 l 1,0,-1
430 144 m 1,5,-1
 430 286 l 1,6,7
 430 286 430 286 144 286 c 1,8,-1
 144 430 l 1,9,-1
 0 430 l 1,10,11
 0 430 0 430 0 716 c 1,12,-1
 144 716 l 1,13,-1
 144 858 l 1,14,15
 144 858 144 858 572 858 c 1,16,17
 572 858 572 858 572 144 c 1,18,-1
 430 144 l 1,5,-1
430 430 m 1,19,20
 430 430 430 430 430 716 c 1,21,22
 430 716 430 716 144 716 c 1,23,24
 144 716 144 716 144 430 c 1,25,26
 144 430 144 430 430 430 c 1,19,20
EndSplineSet
EndChar

StartChar: h
Encoding: 104 104 75
Width: 714
GlyphClass: 2
Flags: W
LayerCount: 2
Fore
SplineSet
430 0 m 1,0,1
 430 0 430 0 430 572 c 1,2,-1
 572 572 l 1,3,-1
 572 0 l 1,4,-1
 430 0 l 1,0,1
0 0 m 1,5,6
 0 0 0 0 0 1002 c 1,7,-1
 144 1002 l 1,8,9
 144 1002 144 1002 144 716 c 1,10,11
 144 716 144 716 430 716 c 1,12,-1
 430 572 l 1,13,14
 430 572 430 572 144 572 c 1,15,16
 144 572 144 572 144 0 c 1,17,-1
 0 0 l 1,5,6
EndSplineSet
EndChar

StartChar: i
Encoding: 105 105 76
Width: 428
GlyphClass: 2
Flags: W
LayerCount: 2
Fore
SplineSet
144 0 m 1,0,1
 144 0 144 0 144 572 c 1,2,-1
 0 572 l 1,3,-1
 0 716 l 1,4,5
 0 716 0 716 286 716 c 1,6,-1
 286 0 l 1,7,-1
 144 0 l 1,0,1
144 858 m 1,8,-1
 144 1002 l 1,9,-1
 286 1002 l 1,10,-1
 286 858 l 1,11,-1
 144 858 l 1,8,-1
EndSplineSet
EndChar

StartChar: j
Encoding: 106 106 77
Width: 571
GlyphClass: 2
Flags: W
LayerCount: 2
Fore
SplineSet
286 858 m 1,0,-1
 286 1002 l 1,1,-1
 430 1002 l 1,2,-1
 430 858 l 1,3,-1
 286 858 l 1,0,-1
286 144 m 1,4,-1
 286 0 l 1,5,6
 286 0 286 0 0 0 c 1,7,-1
 0 144 l 1,8,-1
 286 144 l 1,4,-1
286 144 m 1,9,10
 286 144 286 144 286 572 c 1,11,-1
 144 572 l 1,12,-1
 144 716 l 1,13,14
 144 716 144 716 430 716 c 1,15,16
 430 716 430 716 430 144 c 1,17,-1
 286 144 l 1,9,10
EndSplineSet
EndChar

StartChar: k
Encoding: 107 107 78
Width: 714
GlyphClass: 2
Flags: W
LayerCount: 2
Fore
SplineSet
430 0 m 1,0,-1
 430 144 l 1,1,-1
 572 144 l 1,2,-1
 572 0 l 1,3,-1
 430 0 l 1,0,-1
0 0 m 1,4,5
 0 0 0 0 0 1002 c 1,6,-1
 144 1002 l 1,7,8
 144 1002 144 1002 144 430 c 1,9,-1
 286 430 l 1,10,-1
 286 286 l 1,11,-1
 430 286 l 1,12,-1
 430 144 l 1,13,-1
 286 144 l 1,14,-1
 286 286 l 1,15,-1
 144 286 l 1,16,-1
 144 0 l 1,17,-1
 0 0 l 1,4,5
286 430 m 1,18,-1
 286 572 l 1,19,-1
 430 572 l 1,20,-1
 430 430 l 1,21,-1
 286 430 l 1,18,-1
430 572 m 1,22,-1
 430 716 l 1,23,-1
 572 716 l 1,24,-1
 572 572 l 1,25,-1
 430 572 l 1,22,-1
EndSplineSet
EndChar

StartChar: l
Encoding: 108 108 79
Width: 285
GlyphClass: 2
Flags: W
LayerCount: 2
Fore
SplineSet
0 0 m 1,0,1
 0 0 0 0 0 1002 c 1,2,-1
 144 1002 l 1,3,-1
 144 0 l 1,4,-1
 0 0 l 1,0,1
EndSplineSet
EndChar

StartChar: m
Encoding: 109 109 80
Width: 857
GlyphClass: 2
Flags: W
LayerCount: 2
Fore
SplineSet
572 0 m 1,0,1
 572 0 572 0 572 572 c 1,2,-1
 716 572 l 1,3,-1
 716 0 l 1,4,-1
 572 0 l 1,0,1
286 0 m 1,5,6
 286 0 286 0 286 572 c 1,7,-1
 144 572 l 1,8,9
 144 572 144 572 144 0 c 1,10,-1
 0 0 l 1,11,12
 0 0 0 0 0 716 c 1,13,14
 0 716 0 716 572 716 c 1,15,-1
 572 572 l 1,16,-1
 430 572 l 1,17,18
 430 572 430 572 430 0 c 1,19,-1
 286 0 l 1,5,6
EndSplineSet
EndChar

StartChar: n
Encoding: 110 110 81
Width: 714
GlyphClass: 2
Flags: W
LayerCount: 2
Fore
SplineSet
430 0 m 1,0,1
 430 0 430 0 430 572 c 1,2,-1
 572 572 l 1,3,-1
 572 0 l 1,4,-1
 430 0 l 1,0,1
0 0 m 1,5,6
 0 0 0 0 0 716 c 1,7,8
 0 716 0 716 430 716 c 1,9,-1
 430 572 l 1,10,11
 430 572 430 572 144 572 c 1,12,13
 144 572 144 572 144 0 c 1,14,-1
 0 0 l 1,5,6
EndSplineSet
EndChar

StartChar: o
Encoding: 111 111 82
Width: 714
GlyphClass: 2
Flags: W
LayerCount: 2
Fore
SplineSet
430 144 m 1,0,-1
 430 0 l 1,1,2
 430 0 430 0 144 0 c 1,3,-1
 144 144 l 1,4,-1
 430 144 l 1,0,-1
430 144 m 1,5,6
 430 144 430 144 430 572 c 1,7,-1
 572 572 l 1,8,9
 572 572 572 572 572 144 c 1,10,-1
 430 144 l 1,5,6
144 144 m 1,11,-1
 0 144 l 1,12,13
 0 144 0 144 0 572 c 1,14,-1
 144 572 l 1,15,16
 144 573 144 573 144 144 c 1,11,-1
430 572 m 1,17,18
 430 572 430 572 144 572 c 1,19,-1
 144 716 l 1,20,21
 144 716 144 716 430 716 c 1,22,-1
 430 572 l 1,17,18
EndSplineSet
EndChar

StartChar: p
Encoding: 112 112 83
Width: 714
GlyphClass: 2
Flags: W
LayerCount: 2
Fore
SplineSet
0 0 m 5,0,1
 0 0 0 0 0 858 c 5,2,3
 0 858 0 858 430 858 c 5,4,-1
 430 716 l 5,5,-1
 572 716 l 5,6,7
 572 716 572 716 572 286 c 5,8,-1
 430 286 l 5,9,10
 430 286 430 286 430 716 c 5,11,12
 430 716 430 716 144 716 c 5,13,14
 144 716 144 716 144 286 c 5,15,16
 144 286 144 286 430 286 c 5,17,-1
 430 144 l 5,18,-1
 144 144 l 5,19,-1
 144 0 l 5,20,-1
 0 0 l 5,0,1
EndSplineSet
EndChar

StartChar: q
Encoding: 113 113 84
Width: 714
GlyphClass: 2
Flags: W
LayerCount: 2
Fore
SplineSet
430 0 m 1,0,-1
 430 144 l 1,1,2
 430 144 430 144 144 144 c 1,3,-1
 144 286 l 1,4,-1
 0 286 l 1,5,6
 0 286 0 286 0 716 c 1,7,-1
 144 716 l 1,8,-1
 144 858 l 1,9,10
 144 858 144 858 572 858 c 1,11,-1
 572 0 l 1,12,-1
 430 0 l 1,0,-1
430 286 m 1,13,14
 430 286 430 286 430 716 c 1,15,16
 430 716 430 716 144 716 c 1,17,18
 144 716 144 716 144 286 c 1,19,20
 144 286 144 286 430 286 c 1,13,14
EndSplineSet
EndChar

StartChar: r
Encoding: 114 114 85
Width: 714
GlyphClass: 2
Flags: W
LayerCount: 2
Fore
SplineSet
0 0 m 1,0,1
 0 0 0 0 0 716 c 1,2,3
 0 716 0 716 430 716 c 1,4,-1
 430 572 l 1,5,-1
 572 572 l 1,6,-1
 572 430 l 1,7,-1
 430 430 l 1,8,-1
 430 572 l 1,9,10
 430 572 430 572 144 572 c 1,11,-1
 144 0 l 1,12,-1
 0 0 l 1,0,1
EndSplineSet
EndChar

StartChar: s
Encoding: 115 115 86
Width: 714
GlyphClass: 2
Flags: W
LayerCount: 2
Fore
SplineSet
430 144 m 1,0,-1
 430 0 l 1,1,2
 430 0 430 0 0 0 c 1,3,-1
 0 144 l 1,4,-1
 430 144 l 1,0,-1
430 144 m 1,5,-1
 430 286 l 1,6,-1
 572 286 l 1,7,-1
 572 144 l 1,8,-1
 430 144 l 1,5,-1
430 286 m 1,9,10
 430 286 430 286 144 286 c 1,11,-1
 144 430 l 1,12,13
 144 430 144 430 430 430 c 1,14,-1
 430 286 l 1,9,10
144 430 m 1,15,-1
 0 430 l 1,16,-1
 0 572 l 1,17,-1
 144 572 l 1,18,-1
 144 430 l 1,15,-1
572 716 m 1,19,-1
 572 572 l 1,20,21
 572 572 572 572 144 572 c 1,22,-1
 144 716 l 1,23,24
 143 716 143 716 572 716 c 1,19,-1
EndSplineSet
EndChar

StartChar: t
Encoding: 116 116 87
Width: 714
GlyphClass: 2
Flags: W
LayerCount: 2
Fore
SplineSet
572 144 m 1,0,-1
 572 0 l 1,1,2
 572 0 572 0 286 0 c 1,3,-1
 286 144 l 1,4,-1
 572 144 l 1,0,-1
286 144 m 1,5,-1
 144 144 l 1,6,7
 144 144 144 144 144 572 c 1,8,-1
 0 572 l 1,9,-1
 0 716 l 1,10,-1
 144 716 l 1,11,12
 144 716 144 716 144 1002 c 1,13,-1
 286 1002 l 1,14,15
 286 1002 286 1002 286 716 c 1,16,17
 286 716 286 716 572 716 c 1,18,-1
 572 572 l 1,19,20
 572 572 572 572 286 572 c 1,21,22
 286 573 286 573 286 144 c 1,5,-1
EndSplineSet
EndChar

StartChar: u
Encoding: 117 117 88
Width: 714
GlyphClass: 2
Flags: W
LayerCount: 2
Fore
SplineSet
144 0 m 5,0,-1
 144 144 l 5,1,2
 144 144 144 144 430 144 c 5,3,4
 430 144 430 144 430 716 c 5,5,-1
 572 716 l 5,6,7
 572 716 572 716 572 0 c 5,8,-1
 144 0 l 5,0,-1
144 144 m 5,9,-1
 0 144 l 5,10,11
 0 144 0 144 0 716 c 5,12,-1
 144 716 l 5,13,14
 144 716 144 716 144 144 c 5,9,-1
EndSplineSet
EndChar

StartChar: v
Encoding: 118 118 89
Width: 857
GlyphClass: 2
Flags: W
LayerCount: 2
Fore
SplineSet
286 0 m 1,0,-1
 286 144 l 1,1,-1
 430 144 l 1,2,-1
 430 0 l 1,3,-1
 286 0 l 1,0,-1
430 144 m 1,4,5
 430 144 430 144 430 430 c 1,6,-1
 572 430 l 1,7,-1
 572 144 l 1,8,-1
 430 144 l 1,4,5
286 144 m 1,9,-1
 144 144 l 1,10,11
 144 144 144 144 144 430 c 1,12,-1
 286 430 l 1,13,14
 286 430 286 430 286 144 c 1,9,-1
572 430 m 1,15,16
 572 430 572 430 572 716 c 1,17,-1
 716 716 l 1,18,19
 716 716 716 716 716 430 c 1,20,-1
 572 430 l 1,15,16
144 430 m 1,21,-1
 0 430 l 1,22,23
 0 430 0 430 0 716 c 1,24,-1
 144 716 l 1,25,26
 144 716 144 716 144 430 c 1,21,-1
EndSplineSet
EndChar

StartChar: w
Encoding: 119 119 90
Width: 857
GlyphClass: 2
Flags: W
LayerCount: 2
Fore
SplineSet
430 0 m 1,0,-1
 430 144 l 1,1,-1
 572 144 l 1,2,-1
 572 0 l 1,3,-1
 430 0 l 1,0,-1
144 0 m 1,4,-1
 144 144 l 1,5,-1
 286 144 l 1,6,-1
 286 0 l 1,7,-1
 144 0 l 1,4,-1
572 144 m 1,8,9
 572 144 572 144 572 716 c 1,10,-1
 716 716 l 1,11,-1
 716 144 l 1,12,-1
 572 144 l 1,8,9
286 144 m 1,13,14
 286 144 286 144 286 572 c 1,15,-1
 430 572 l 1,16,17
 430 572 430 572 430 144 c 1,18,-1
 286 144 l 1,13,14
144 144 m 1,19,-1
 0 144 l 1,20,21
 0 144 0 144 0 716 c 1,22,-1
 144 716 l 1,23,24
 144 716 144 716 144 144 c 1,19,-1
EndSplineSet
EndChar

StartChar: x
Encoding: 120 120 91
Width: 857
GlyphClass: 2
Flags: W
LayerCount: 2
Fore
SplineSet
572 0 m 1,0,-1
 572 144 l 1,1,-1
 716 144 l 1,2,-1
 716 0 l 1,3,-1
 572 0 l 1,0,-1
0 0 m 1,4,-1
 0 144 l 1,5,-1
 144 144 l 1,6,-1
 144 0 l 1,7,-1
 0 0 l 1,4,-1
572 144 m 1,8,-1
 430 144 l 1,9,-1
 430 286 l 1,10,-1
 572 286 l 1,11,-1
 572 144 l 1,8,-1
144 144 m 1,12,-1
 144 286 l 1,13,-1
 286 286 l 1,14,-1
 286 144 l 1,15,-1
 144 144 l 1,12,-1
286 286 m 1,16,-1
 286 430 l 1,17,-1
 430 430 l 1,18,-1
 430 286 l 1,19,-1
 286 286 l 1,16,-1
430 430 m 1,20,-1
 430 572 l 1,21,-1
 572 572 l 1,22,-1
 572 430 l 1,23,-1
 430 430 l 1,20,-1
286 430 m 1,24,-1
 144 430 l 1,25,-1
 144 572 l 1,26,-1
 286 572 l 1,27,-1
 286 430 l 1,24,-1
572 572 m 1,28,-1
 572 716 l 1,29,-1
 716 716 l 1,30,-1
 716 572 l 1,31,-1
 572 572 l 1,28,-1
144 572 m 1,32,-1
 0 572 l 1,33,-1
 0 716 l 1,34,-1
 144 716 l 1,35,-1
 144 572 l 1,32,-1
EndSplineSet
EndChar

StartChar: y
Encoding: 121 121 92
Width: 714
GlyphClass: 2
Flags: W
LayerCount: 2
Fore
SplineSet
430 144 m 1,0,-1
 430 0 l 1,1,2
 430 0 430 0 0 0 c 1,3,-1
 0 144 l 1,4,-1
 430 144 l 1,0,-1
430 144 m 1,5,-1
 430 286 l 1,6,7
 430 286 430 286 144 286 c 1,8,-1
 144 430 l 1,9,10
 144 430 144 430 430 430 c 1,11,12
 430 430 430 430 430 858 c 1,13,-1
 572 858 l 1,14,15
 572 858 572 858 572 144 c 1,16,-1
 430 144 l 1,5,-1
144 430 m 1,17,-1
 0 430 l 1,18,19
 0 430 0 430 0 858 c 1,20,-1
 144 858 l 1,21,22
 144 859 144 859 144 430 c 1,17,-1
EndSplineSet
EndChar

StartChar: z
Encoding: 122 122 93
Width: 714
GlyphClass: 2
Flags: W
LayerCount: 2
Fore
SplineSet
572 144 m 1,0,-1
 572 0 l 1,1,2
 572 0 572 0 0 0 c 1,3,4
 0 0 0 0 0 286 c 1,5,-1
 144 286 l 1,6,-1
 144 144 l 1,7,-1
 572 144 l 1,0,-1
430 430 m 1,8,-1
 430 286 l 1,9,10
 430 286 430 286 144 286 c 1,11,-1
 144 430 l 1,12,13
 144 430 144 430 430 430 c 1,8,-1
430 430 m 1,14,-1
 430 572 l 1,15,16
 430 572 430 572 0 572 c 1,17,-1
 0 716 l 1,18,19
 0 716 0 716 572 716 c 1,20,21
 572 716 572 716 572 430 c 1,22,-1
 430 430 l 1,14,-1
EndSplineSet
EndChar

StartChar: braceleft
Encoding: 123 123 94
Width: 571
GlyphClass: 2
Flags: W
LayerCount: 2
Fore
SplineSet
286 0 m 1,0,-1
 286 144 l 1,1,-1
 430 144 l 1,2,-1
 430 0 l 1,3,-1
 286 0 l 1,0,-1
286 144 m 1,4,-1
 144 144 l 1,5,6
 144 144 144 144 144 430 c 1,7,-1
 286 430 l 1,8,-1
 286 144 l 1,4,-1
144 430 m 1,9,-1
 0 430 l 1,10,-1
 0 572 l 1,11,-1
 144 572 l 1,12,-1
 144 430 l 1,9,-1
144 572 m 1,13,14
 144 572 144 572 144 858 c 1,15,-1
 286 858 l 1,16,17
 286 858 286 858 286 572 c 1,18,-1
 144 572 l 1,13,14
286 858 m 1,19,-1
 286 1002 l 1,20,-1
 430 1002 l 1,21,-1
 430 858 l 1,22,-1
 286 858 l 1,19,-1
EndSplineSet
EndChar

StartChar: bar
Encoding: 124 124 95
Width: 285
GlyphClass: 2
Flags: W
LayerCount: 2
Fore
SplineSet
0 0 m 1,0,1
 0 0 0 0 0 1002 c 1,2,-1
 144 1002 l 1,3,-1
 144 0 l 1,4,-1
 0 0 l 1,0,1
EndSplineSet
EndChar

StartChar: braceright
Encoding: 125 125 96
Width: 571
GlyphClass: 2
Flags: W
LayerCount: 2
Fore
SplineSet
0 0 m 1,0,-1
 0 144 l 1,1,-1
 144 144 l 1,2,-1
 144 0 l 1,3,-1
 0 0 l 1,0,-1
144 144 m 1,4,5
 144 144 144 144 144 430 c 1,6,-1
 286 430 l 1,7,-1
 286 144 l 1,8,-1
 144 144 l 1,4,5
286 430 m 1,9,-1
 286 572 l 1,10,-1
 430 572 l 1,11,-1
 430 430 l 1,12,-1
 286 430 l 1,9,-1
286 572 m 1,13,-1
 144 572 l 1,14,15
 144 572 144 572 144 858 c 1,16,-1
 286 858 l 1,17,18
 286 858 286 858 286 572 c 1,13,-1
144 858 m 1,19,-1
 0 858 l 1,20,-1
 0 1002 l 1,21,-1
 144 1002 l 1,22,-1
 144 858 l 1,19,-1
EndSplineSet
EndChar

StartChar: asciitilde
Encoding: 126 126 97
Width: 1000
GlyphClass: 2
Flags: W
LayerCount: 2
Fore
SplineSet
0 430 m 1,0,-1
 0 572 l 1,1,-1
 144 572 l 1,2,-1
 144 430 l 1,3,-1
 0 430 l 1,0,-1
716 572 m 1,4,-1
 716 430 l 1,5,6
 716 430 716 430 430 430 c 1,7,-1
 430 572 l 1,8,-1
 716 572 l 1,4,-1
716 572 m 1,9,-1
 716 716 l 1,10,-1
 858 716 l 1,11,-1
 858 572 l 1,12,-1
 716 572 l 1,9,-1
430 572 m 1,13,14
 430 572 430 572 144 572 c 1,15,-1
 144 716 l 1,16,17
 144 716 144 716 430 716 c 1,18,-1
 430 572 l 1,13,14
EndSplineSet
EndChar

